<?xml version="1.0" encoding="UTF-8"?>
<svg id="Camada_2" data-name="Camada 2" xmlns="http://www.w3.org/2000/svg" viewBox="0 0 33.16 51.5">
  <defs>
    <style>
      .cls-1 {
        fill: #fff;
      }

      .cls-2 {
        fill: #f7be00;
      }
    </style>
  </defs>
  <g id="pin_maps" data-name="pin maps">
    <g>
      <path class="cls-2" d="m33.16,16.58C33.16,7.42,25.74,0,16.58,0S0,7.42,0,16.58c0,2.96.78,5.74,2.14,8.15l14.44,26.77,14.44-26.77c1.36-2.41,2.14-5.19,2.14-8.15Z"/>
      <path class="cls-1" d="m12.67,17.2c-1.69,1.31-3.76,3.49-5.11,4.97.41.32.87.65,1.74,1.16,0,0,0,0,0,0,2.32,1.26,5.03,2.04,7.87,2.04,4.76,0,7.72-2.11,7.72-5.53s-2.66-4.54-6.65-5.41c-3.65-.78-4.17-1.14-4.17-1.97s.93-1.48,2.39-1.45c1.13.02,1.8.29,2.11.41h0s.01-.01.02-.02c0,0-.01.01-.02.02l.62.27c3-2.78,6.15-4.94,9.32-6.6-.48-.5-1-.97-1.54-1.41-2.16,1.49-4,3.07-5.5,4.53q-.03.12-.01,0c-1.53-.56-3.2-.84-4.99-.84-4.34,0-7.37,2.17-7.37,5.43,0,2.49,1.29,3.63,3.56,4.41m.88.27s1.59.4,2.5.6c3.58.77,3.88,1.41,3.88,2.12,0,.84-1,1.34-2.66,1.34-1.91,0-3.67-.56-5.51-1.76.67-.91,1.33-1.75,1.79-2.3"/>
    </g>
  </g>
</svg>