<?xml version="1.0" encoding="UTF-8"?>
<svg id="Camada_2" data-name="Camada 2" xmlns="http://www.w3.org/2000/svg" viewBox="0 0 997.38 829.5">
  <defs>
    <style>
      .cls-1 {
        fill: #e3e3e3;
      }
    </style>
  </defs>
  <g id="mapa">
    <path class="cls-1" d="m.3,543.46c.91-7.01,6-67,30-68s18-25,18-25c0,0-4-21,34-21s35-15,44-17c4.84-1.08,3,13,15,13s13.76-13,13.76-13c0,0,.24-14,20.24-14h53.03s15.97-2,24.97,5,43.58,6.47,48.29-5.26,10.71-15.74,18.71-16.74,20-16,16-26-8-13-3-22,4-30-10-28-12.84-2.6-11-5c8.41-10.95,28-22,29-47s-18-37-18-37c0,0-10-8,1-15s6-18,6-28,5-11,18-11,31-12,23-27-10-24-4-29,6-19,2-23-2-13,10-9,18,3,18-12,2-26,10-12,16,14,25,13,8,4,5,13,4,23,20,11,26-25.59,39.5-26.79,16.5-5.21,20.5-11.21,10-11,17-11c0,0,8,3,27-21S611.08,1.05,628.3,1.46c4.7.11,17-2,8,17s6,24,14,28,34,4,41-4,18-9,31,1,79,53,93,50,27.9,4.72,41,20c12,14,2,31,18,34s14-1,24-5,23,2,32,8,15,4,15,4c0,0,14-4,30,9s33,22,13,35-28,26-28,36,4.08,14.34-13,18c-14,3-20,39-18,45,5.81,17.44,21,41,29,48s8.47,12,4,12c-9,0-7-8-20-5-8.33,1.92-5,4-22,4s-21.43,2.8-17,9c5,7,2.84,7.29-12,11-8,2-8,5-12,12-3.61,6.32-6,15,3,18s2.83,15.14,7,20c6,7,10,13-2,13s-24,3-14,14,9.81,9.41,10,14c.12,2.85,3.19,5.19,7,9,3,3,5,14-6,33s-19,29-24,40c-6.14,13.51,1,28-33,28-14.14,0-20,17-19,34s0,21-20,42-24,39-23,49-4,21-17,28-23,6-39,16-24,7-45,4-36,1-44,7-25,10-40,15-21,5-27,10-12,5-21,5-18,6-24,13-24,7-27,4-16.13-9.3-21.56,3.35-1.44,15.65-13.44,17.65-24.02,8-29.51,0c-5.49-8-7.49-7-8.49-15s-2-18-10-22-16-2-14-22c0,0,2-36,12-52s3-36-12-33-24,9-32-8-15.94-35.58-7-49c4-6,4-17,2-21-3.61-7.21-14-8-12-21s-1-25-14-30-7.88-7.63-20-4c-10,3-18.39-7.75-26,10-3,7-23,4-33,2s-11-3-21,1-17-4-26,3-7.58,10.21-12,10c-3.71-.18-5-10-14-2s-15,3-15-7,4-28-30-22c0,0-41,4-55-5s-26-11-35-5c-16.85,11.23-37,33-34,10Z"/>
  </g>
</svg>